<svg width="194" height="130" viewBox="0 0 194 130" fill="none" xmlns="http://www.w3.org/2000/svg">
<path d="M0 2.45283C0 1.09817 1.09817 0 2.45283 0H191.321C192.675 0 193.774 1.09817 193.774 2.45283V127.547C193.774 128.902 192.675 130 191.321 130H2.45283C1.09817 130 0 128.902 0 127.547V2.45283Z" fill="#50668F"/>
<circle cx="153" cy="8" r="4" fill="#D9DCF7"/>
<circle cx="167" cy="8" r="4" fill="#FFA64D"/>
<circle cx="181" cy="8" r="4" fill="#F90000"/>
<rect x="4.90576" y="15.9434" width="183.962" height="109.151" fill="#D9DCF7"/>
<path fill-rule="evenodd" clip-rule="evenodd" d="M109.894 80.0115C104.772 84.1548 98.2498 86.6364 91.1485 86.6364C74.6751 86.6364 61.3208 73.2821 61.3208 56.8087C61.3208 40.3353 74.6751 26.981 91.1485 26.981C107.622 26.981 120.976 40.3353 120.976 56.8087C120.976 63.1452 119 69.0203 115.631 73.8514L150.849 109.07L144.901 115.018L109.894 80.0115ZM113.519 56.8086C113.519 69.1637 103.504 79.1794 91.1485 79.1794C78.7935 79.1794 68.7778 69.1637 68.7778 56.8086C68.7778 44.4536 78.7935 34.4378 91.1485 34.4378C103.504 34.4378 113.519 44.4536 113.519 56.8086Z" fill="#50668F"/>
<path fill-rule="evenodd" clip-rule="evenodd" d="M76.1055 65.5986L82.7976 72.2907L91.2476 63.8407L99.9379 72.531L106.63 65.8389L97.9397 57.1486L106.698 48.3903L100.006 41.6982L91.2476 50.4565L82.7297 41.9386L76.0376 48.6307L84.5555 57.1486L76.1055 65.5986Z" fill="#F90000"/>
</svg>
