<svg width="121" height="133" viewBox="0 0 121 133" fill="none" xmlns="http://www.w3.org/2000/svg">
<path d="M4.2461 13.8623L61.0065 0L116.643 13.8623C116.643 13.8623 126.446 62.3802 116.643 88.7935C106.839 115.207 61.0065 132.628 61.0065 132.628C61.0065 132.628 13.7998 113.521 4.2461 88.7935C-5.30763 64.0662 4.2461 13.8623 4.2461 13.8623Z" fill="#50668F"/>
<path fill-rule="evenodd" clip-rule="evenodd" d="M46.7651 47.0864C46.7651 39.7039 52.7498 33.7192 60.1323 33.7192C67.5148 33.7192 73.4995 39.7039 73.4995 47.0864V61.9386C77.6009 61.9387 80.9257 65.2635 80.9257 69.3648V91.6435C80.9257 95.7449 77.6009 99.0697 73.4995 99.0697H46.7651C42.6637 99.0697 39.3389 95.7449 39.3389 91.6435V69.3648C39.3389 65.2635 42.6637 61.9386 46.7651 61.9386H46.7651V47.0864ZM69.0439 61.9386H51.2209V47.0863C51.2209 42.1646 55.2107 38.1749 60.1324 38.1749C65.0541 38.1749 69.0439 42.1647 69.0439 47.0863V61.9386Z" fill="#D9DCF7"/>
<path fill-rule="evenodd" clip-rule="evenodd" d="M63.4999 77.6949C64.53 76.871 65.1899 75.6035 65.1899 74.1819C65.1899 71.6989 63.177 69.686 60.694 69.686C58.211 69.686 56.1981 71.6989 56.1981 74.1819C56.1981 75.688 56.9387 77.0212 58.0756 77.837L55.5981 85.2178C55.24 86.2847 56.0338 87.3885 57.1593 87.3885H64.464C65.5895 87.3885 66.3833 86.2847 66.0251 85.2178L63.4999 77.6949Z" fill="#F90000"/>
</svg>
