<svg width="129" height="128" viewBox="0 0 129 128" fill="none" xmlns="http://www.w3.org/2000/svg">
<ellipse cx="64.5" cy="63.7833" rx="64.5" ry="63.7833" fill="#50668F"/>
<path d="M78.3352 106.817C76.7822 106.473 75.4891 106.172 75.4616 106.147C75.4151 106.106 76.0494 102.968 76.2343 102.324C76.2946 102.114 76.0107 101.861 75.2087 101.411C74.5987 101.068 73.713 100.511 73.2405 100.173L72.3813 99.5584L70.7017 100.871C69.7779 101.594 69.0043 102.162 68.9827 102.135C67.5015 100.271 65.0109 96.9879 65.0109 96.8999C65.0109 96.8337 65.7256 96.2286 66.5992 95.5554C67.4728 94.8821 68.1875 94.2721 68.1875 94.1998C68.1875 94.1275 68.0183 93.6485 67.8115 93.1353C67.6047 92.6221 67.302 91.686 67.1389 91.0551L66.8422 89.9079L65.0882 89.8642C62.3297 89.7953 62.5797 90.0858 62.6604 87.0432C62.6983 85.6098 62.768 84.1193 62.8152 83.7311L62.901 83.0251L64.9959 83.0836L67.0907 83.1421L67.3926 82.2012C67.5586 81.6837 67.9408 80.7144 68.242 80.0471L68.7895 78.8338L68.2679 78.3872C67.981 78.1417 67.2754 77.5156 66.6999 76.996L65.6535 76.0513L66.0938 75.5674C66.3359 75.3012 67.3194 74.2099 68.2791 73.1422C69.2389 72.0745 70.0676 71.1817 70.1206 71.1582C70.1737 71.1348 70.9211 71.7434 71.7817 72.5107L73.3462 73.9059L74.2947 73.2992C74.8163 72.9655 75.7205 72.4855 76.3039 72.2324C76.8873 71.9794 77.3646 71.7058 77.3646 71.6243C77.3646 71.5429 77.2389 70.6306 77.0854 69.597C76.9318 68.5635 76.8723 67.6595 76.953 67.5882C77.0879 67.4692 82.5607 66.689 83.2041 66.6971C83.4267 66.7001 83.5311 67.0728 83.7113 68.5095C83.8361 69.5044 84.005 70.4468 84.0864 70.6038C84.1843 70.7923 84.5829 70.9285 85.2608 71.0052C85.8252 71.0691 86.7865 71.2725 87.397 71.4574L88.507 71.7935L89.4778 70.2887C90.0117 69.4611 90.4913 68.6726 90.5435 68.5364C90.5957 68.4003 90.7179 68.2889 90.8149 68.2889C91.0279 68.2889 96.4246 71.6431 96.4246 71.7755C96.4246 71.8267 95.9991 72.5522 95.4789 73.3878C94.9588 74.2233 94.4763 75.0084 94.4067 75.1323C94.3289 75.2708 94.6153 75.7472 95.1491 76.3677C95.6271 76.9232 96.2393 77.7152 96.5095 78.1278C96.7798 78.5403 97.0897 78.8762 97.1981 78.8743C97.3065 78.872 98.2291 78.603 99.2483 78.2758L101.101 77.6809L102.102 80.706C102.653 82.3698 103.11 83.8174 103.117 83.9229C103.125 84.0284 102.237 84.3909 101.146 84.7285L99.1601 85.3423L99.2109 86.478C99.2389 87.1026 99.1938 88.1472 99.1108 88.7993L98.9598 89.9849L100.56 90.6274C101.44 90.9808 102.334 91.3369 102.547 91.4188C102.927 91.5651 102.912 91.6186 101.688 94.6204C101.003 96.2994 100.421 97.697 100.395 97.7263C100.369 97.7555 99.4664 97.425 98.3888 96.9918L96.4295 96.2043L95.868 96.9387C95.5592 97.3426 94.873 98.1224 94.343 98.6716L93.3795 99.6701L94.3746 101.525L95.3696 103.38L93.1175 104.568C91.8789 105.221 90.5463 105.939 90.1562 106.163L89.4469 106.571L88.435 104.66L87.4231 102.749L86.4877 102.967C85.9731 103.086 84.9475 103.241 84.2085 103.31L82.8649 103.436L82.5876 104.702C82.4351 105.398 82.2467 106.285 82.1689 106.674C81.9845 107.594 81.8671 107.599 78.3353 106.817L78.3352 106.817ZM85.0415 95.4033C88.8156 94.3937 91.4831 90.91 91.4831 86.9909C91.4831 81.5752 86.092 77.4202 80.8401 78.7881C79.3939 79.1648 78.2659 79.7842 77.1219 80.8297C74.4446 83.2766 73.5944 87.3887 75.1093 90.5636C76.3266 93.1148 78.7894 95.1038 81.2472 95.5207C82.2272 95.6869 84.2109 95.6256 85.0415 95.4033ZM38.9863 77.8236C36.6604 76.969 34.7328 76.1962 34.7028 76.1062C34.6728 76.0163 35.0868 74.763 35.6228 73.3211C36.1588 71.8792 36.5973 70.6803 36.5973 70.6568C36.5973 70.6333 36.0651 70.2344 35.4146 69.7702C34.7641 69.306 33.6535 68.3768 32.9466 67.7053L31.6613 66.4844L29.1872 67.9161C27.8265 68.7036 26.6539 69.3466 26.5814 69.3451C26.4513 69.342 21.9493 61.5922 21.9493 61.3709C21.9493 61.3082 23.0016 60.6483 24.2877 59.9045C25.5738 59.1608 26.6959 58.4853 26.7813 58.4033C26.87 58.3182 26.775 57.5876 26.5594 56.6977C26.352 55.8415 26.1114 54.4779 26.0247 53.6674C25.9381 52.8569 25.7996 52.1346 25.7172 52.0624C25.6347 51.9902 24.3397 51.7171 22.8395 51.4555C21.3393 51.1939 20.0923 50.9603 20.0684 50.9365C20.0059 50.8739 21.6078 41.9228 21.6977 41.833C21.739 41.7916 23.0477 41.9786 24.6058 42.2486C26.1639 42.5185 27.4633 42.7104 27.4933 42.6751C27.5233 42.6397 27.8849 41.9358 28.2969 41.1107C28.7089 40.2857 29.3949 39.1105 29.8214 38.4992C30.2479 37.8879 30.5969 37.3056 30.5969 37.2051C30.5969 37.1047 29.7659 36.0408 28.7502 34.8409L26.9035 32.6591L28.5296 31.2737C29.424 30.5117 30.9102 29.2621 31.8323 28.4969C32.7544 27.7317 33.6393 26.9961 33.7988 26.8622C34.057 26.6454 34.2956 26.8618 35.9744 28.835C37.0114 30.0539 37.9359 31.0513 38.0287 31.0513C38.1214 31.0513 38.572 30.8619 39.0298 30.6305C39.9252 30.178 42.0428 29.4163 43.2595 29.1092L44.0095 28.9199V25.9265V22.9331H48.6821H53.3547L53.403 25.9596L53.4513 28.986L54.8632 29.3712C55.6397 29.5831 56.9533 30.0477 57.7824 30.4038C58.6114 30.7599 59.3347 31.0513 59.3897 31.0513C59.4724 31.0513 61.8729 28.2542 62.915 26.9436C63.1951 26.5913 63.2818 26.6502 66.7535 29.5545C68.707 31.1887 70.3053 32.5745 70.3053 32.6339C70.3053 32.6934 69.4732 33.7418 68.4561 34.9638L66.6069 37.1855L67.5694 38.6236C68.0988 39.4146 68.8174 40.6551 69.1662 41.3804C69.5151 42.1057 69.8942 42.6987 70.0088 42.6983C70.1233 42.698 71.3248 42.4994 72.6787 42.2571C74.0326 42.0149 75.2645 41.8167 75.4161 41.8167C75.6386 41.8167 75.8427 42.6864 76.4715 46.3149C76.9002 48.7889 77.2081 50.8561 77.1557 50.9085C77.1032 50.9609 75.9574 51.1987 74.6094 51.4368C73.2613 51.675 71.9915 51.9095 71.7876 51.958C71.4602 52.0358 71.4034 52.217 71.3022 53.5053C71.2022 54.7792 70.7122 57.257 70.4017 58.0588C70.3231 58.2617 70.9375 58.6977 72.8601 59.8033C74.2699 60.614 75.4233 61.3064 75.4233 61.3421C75.4233 61.4508 70.991 69.0721 70.8302 69.2399C70.7441 69.3298 69.6158 68.781 68.1885 67.9551L65.6972 66.5134L64.3393 67.7594C63.5924 68.4446 62.4875 69.3405 61.8839 69.7501C61.2803 70.1598 60.784 70.58 60.7809 70.6839C60.7778 70.7879 61.2089 72.0551 61.7389 73.5C62.2689 74.9449 62.6763 76.1533 62.6442 76.1853C62.6122 76.2174 60.6498 76.9483 58.2833 77.8096C54.9772 79.0129 53.9503 79.322 53.8494 79.1442C53.7771 79.0169 53.4093 78.0512 53.032 76.9981C52.6547 75.9451 52.2286 74.8025 52.0851 74.4592L51.8241 73.8349L50.2552 73.958C49.3923 74.0257 47.9715 74.0227 47.098 73.9511C46.2244 73.8798 45.4679 73.8827 45.4168 73.9572C45.3658 74.0321 44.8929 75.2888 44.3659 76.75C43.8389 78.2112 43.3645 79.4 43.3116 79.3918C43.2587 79.3836 41.3123 78.6777 38.9863 77.8231V77.8236ZM51.2453 62.9674C52.5429 62.7314 55.182 61.4366 56.2796 60.4975C59.1149 58.0718 60.5988 54.8975 60.5988 51.2584C60.5988 45.154 56.1404 40.1182 50.0699 39.3659C46.3947 38.9105 42.8737 40.1342 40.2179 42.79C36.0826 46.9253 35.4815 53.0963 38.7395 57.9674C41.473 62.0543 46.0987 63.9037 51.2453 62.9674ZM93.7709 65.7493L93.5398 64.0658L92.7321 63.9575C92.2878 63.8979 91.515 63.7363 91.0148 63.5983C90.5145 63.4603 90.0638 63.3474 90.0132 63.3474C89.9626 63.3474 89.5491 63.9629 89.0942 64.7152C88.6394 65.4674 88.2474 66.1049 88.2232 66.1318C88.1894 66.1694 84.0096 63.6434 83.7496 63.4282C83.7185 63.4024 84.0824 62.7535 84.5584 61.9862L85.4237 60.591L84.3339 59.2322C83.7345 58.4848 83.2056 57.8347 83.1584 57.7876C83.1113 57.7404 82.3801 57.936 81.5336 58.2221C80.4353 58.5934 79.9738 58.6816 79.9225 58.5301C79.2357 56.5028 78.4127 53.7694 78.4714 53.7106C78.5135 53.6686 79.1994 53.4152 79.9956 53.1477L81.4433 52.6612L81.5098 50.8048L81.5763 48.9484L80.3084 48.4643C78.3505 47.7168 78.4223 47.9907 79.4849 45.3197C80.0004 44.024 80.4398 42.9398 80.4615 42.9105C80.4831 42.8811 81.198 43.1383 82.0501 43.4819L83.5994 44.1066L83.8711 43.7117C84.0205 43.4945 84.563 42.8732 85.0766 42.331L86.0105 41.3453L85.2176 39.8746C84.7815 39.0657 84.4443 38.3899 84.4684 38.3728C84.7453 38.176 88.934 35.9928 89.0347 35.9928C89.1096 35.9928 89.5053 36.6355 89.914 37.421C90.6426 38.8215 90.6677 38.847 91.2025 38.7313C91.5024 38.6664 92.2965 38.5405 92.9672 38.4515C93.6378 38.3625 94.2105 38.2657 94.2398 38.2364C94.2691 38.2071 94.4275 37.5513 94.5919 36.7791C94.7563 36.0069 94.9487 35.3088 95.0195 35.2279C95.1558 35.0721 99.7677 35.9313 100.005 36.1567C100.082 36.2293 99.9907 36.9781 99.803 37.8207L99.4616 39.3526L100.281 39.8232C100.732 40.082 101.439 40.5209 101.851 40.7986L102.6 41.3034L103.812 40.3246C104.478 39.7863 105.094 39.3486 105.18 39.3519C105.335 39.358 108.284 43.0483 108.367 43.3411C108.391 43.4248 107.858 43.9219 107.183 44.4457C106.507 44.9696 105.955 45.4608 105.955 45.5373C105.955 45.6137 106.045 45.8998 106.156 46.1731C106.267 46.4463 106.493 47.1464 106.659 47.7288C106.959 48.7832 106.964 48.7882 107.737 48.907C108.164 48.9725 108.931 49.0321 109.44 49.0393L110.367 49.0524L110.366 49.7142C110.366 50.0782 110.313 51.2803 110.249 52.3855L110.134 54.395L108.5 54.2801L106.866 54.1653L106.656 54.8296C106.54 55.195 106.239 55.9641 105.986 56.5386L105.527 57.5833L106.711 58.6676C107.363 59.264 107.896 59.8044 107.896 59.8686C107.896 60.0219 104.707 63.5931 104.496 63.6766C104.406 63.712 104.003 63.4322 103.599 63.0548C103.196 62.6774 102.653 62.1828 102.392 61.9555L101.918 61.5424L101.364 61.9373C101.059 62.1545 100.351 62.5542 99.7905 62.8256L98.7719 63.319L99.0131 64.948C99.1457 65.844 99.233 66.5914 99.2072 66.6089C99.1812 66.6264 98.1674 66.7804 96.9541 66.951C95.7408 67.1216 94.5802 67.2998 94.3751 67.347C94.0269 67.427 93.9867 67.3205 93.7709 65.7492L93.7709 65.7493ZM95.5776 57.8573C97.6986 57.4136 99.548 55.9605 100.455 54.0248C100.871 53.1389 100.925 52.8093 100.924 51.1702C100.923 49.4813 100.877 49.2236 100.407 48.2621C99.7478 46.9153 98.5563 45.7254 97.2149 45.0748C96.2699 44.6164 95.9759 44.5625 94.3951 44.5576C92.843 44.553 92.5086 44.6091 91.6211 45.0251C90.2793 45.654 88.9247 46.9517 88.2491 48.2554C87.7371 49.2436 87.6986 49.4455 87.6939 51.1702C87.6893 52.8424 87.7364 53.1201 88.1764 54.0158C89.2148 56.1293 91.1898 57.5965 93.3726 57.8759C93.935 57.9479 94.4507 58.0171 94.5188 58.0298C94.5868 58.0425 95.0633 57.965 95.5776 57.8573Z" fill="#D9DCF7"/>
</svg>
